<svg height='100px' width='100px'  fill="#000000" xmlns:x="http://ns.adobe.com/Extensibility/1.0/" xmlns:i="http://ns.adobe.com/AdobeIllustrator/10.0/" xmlns:graph="http://ns.adobe.com/Graphs/1.0/" xmlns="http://www.w3.org/2000/svg" xmlns:xlink="http://www.w3.org/1999/xlink" version="1.1" x="0px" y="0px" viewBox="-379 381 40 40" style="enable-background:new -379 381 40 40;" xml:space="preserve"><g><g i:extraneous="self"><g><path d="M-362,395c-0.6,0-1,0.4-1,1v10c0,0.6,0.4,1,1,1s1-0.4,1-1v-10C-361,395.4-361.4,395-362,395z"></path><path d="M-356,395c-0.6,0-1,0.4-1,1v10c0,0.6,0.4,1,1,1s1-0.4,1-1v-10C-355,395.4-355.4,395-356,395z"></path></g><g><path d="M-359,416c-8.3,0-15-6.7-15-15c0-8.3,6.7-15,15-15s15,6.7,15,15C-344,409.3-350.7,416-359,416z M-359,388     c-7.2,0-13,5.8-13,13s5.8,13,13,13c7.2,0,13-5.8,13-13S-351.8,388-359,388z"></path></g></g></g></svg>