<svg height='100px' width='100px'  fill="#000000" xmlns="http://www.w3.org/2000/svg" xmlns:xlink="http://www.w3.org/1999/xlink" version="1.1" x="0px" y="0px" viewBox="0 0 100 100" enable-background="new 0 0 100 100" xml:space="preserve"><g><path d="M50,12.637c-20.602,0-37.363,16.761-37.363,37.363S29.398,87.363,50,87.363c20.603,0,37.363-16.761,37.363-37.363   S70.603,12.637,50,12.637z M67.169,51.623l-25,18C41.822,69.873,41.412,70,41,70c-0.312,0-0.624-0.073-0.912-0.22   C39.42,69.438,39,68.75,39,68V32c0-0.75,0.42-1.438,1.088-1.78c0.667-0.341,1.471-0.283,2.08,0.157l25,18   C67.69,48.753,68,49.357,68,50S67.69,51.247,67.169,51.623z"></path></g></svg>