<svg height='100px' width='100px'  fill="#000000" xmlns="http://www.w3.org/2000/svg" xmlns:xlink="http://www.w3.org/1999/xlink" version="1.1" x="0px" y="0px" viewBox="0 0 1024 1024" style="enable-background:new 0 0 1024 1024;" xml:space="preserve"><g><g><g><path d="M155.6,102.4c0,23.8,0,47.6,0,71.5c0,38,0,76,0,114c0,8.8,0,17.5,0,26.3c0,13.5,11.5,25,25,25     c23.8,0,47.6,0,71.5,0c38,0,76,0,114,0c8.8,0,17.5,0,26.3,0c13.1,0,25.6-11.5,25-25c-0.6-13.5-11-25-25-25c-23.8,0-47.6,0-71.5,0     c-38,0-76,0-114,0c-8.8,0-17.5,0-26.3,0c8.3,8.3,16.7,16.7,25,25c0-23.8,0-47.6,0-71.5c0-38,0-76,0-114c0-8.8,0-17.5,0-26.3     c0-13.1-11.5-25.6-25-25C167,78,155.6,88.4,155.6,102.4L155.6,102.4z"></path></g></g><g><g><path d="M210,325.9c2.7-4,5.6-8.1,8.4-12c1.3-1.8,2.6-3.5,3.9-5.3c1.1-1.4,3.6-4-0.8,1c1-1.1,1.8-2.3,2.7-3.5     c5.9-7.4,12.1-14.7,18.6-21.7c13.1-14.2,27.2-27.3,42.2-39.4c0.8-0.6,1.5-1.2,2.3-1.8c0.5-0.4,4.4-3.4,0.9-0.8     c-3.5,2.6,0.4-0.3,1-0.7c0.8-0.6,1.6-1.2,2.3-1.8c3.9-2.9,7.9-5.8,11.9-8.5c8.1-5.6,16.3-10.8,24.8-15.7c8.5-5,17.2-9.6,26-13.9     c4-1.9,8-3.8,12.1-5.6c1.8-0.8,9.8-3.5,2.2-1c2.3-0.8,4.6-1.9,6.9-2.8c18.4-7.2,37.3-13.1,56.6-17.4c9.7-2.2,19.4-4,29.2-5.4     c0.7-0.1,5.8-0.8,1.2-0.2c-4.6,0.6,0.6-0.1,1.3-0.1c2.3-0.3,4.6-0.5,6.9-0.8c5.4-0.6,10.8-1,16.2-1.4c19-1.2,38.2-1,57.2,0.5     c4.1,0.3,8.3,0.7,12.4,1.2c2.3,0.3,4.6,0.6,6.8,0.8c-8.9-1.1,0.2,0.1,2.2,0.4c8.7,1.4,17.4,3,26.1,5c17.3,3.9,34.2,9,50.8,15.2     c3.9,1.5,7.9,3.1,11.8,4.6c3.7,1.5-2.1-0.9-2.3-1c1,0.5,2,0.9,3,1.3c2.2,1,4.4,2,6.7,3c8,3.7,15.9,7.6,23.6,11.8     c15,8.2,29.5,17.3,43.3,27.3c1.8,1.3,3.5,2.6,5.3,3.9c0.7,0.5,1.4,1.1,2.1,1.6c3.2,2.4-1.8-1.4-1.9-1.5c3.5,2.9,7.2,5.7,10.7,8.6     c6.5,5.5,12.9,11.1,19,17c12.3,11.7,23.8,24.3,34.5,37.5c1.4,1.7,2.7,3.5,4.1,5.1c-5.4-6.6-0.2-0.3,0.9,1.2     c2.6,3.5,5.2,7,7.7,10.6c5,7.2,9.8,14.5,14.3,22c8.8,14.7,16.7,30,23.5,45.8c0.4,0.8,0.7,1.6,1,2.4c-3-6.7-1.4-3.3-0.7-1.7     c0.7,1.9,1.5,3.7,2.2,5.6c1.7,4.3,3.3,8.7,4.9,13.1c2.9,8.2,5.5,16.5,7.8,24.9c2.4,8.7,4.5,17.5,6.3,26.3c0.8,4,1.6,8,2.3,12     c0.4,2.2,0.7,4.5,1.1,6.7c0.1,0.9,0.3,1.8,0.4,2.7c0.1,0.9,0.3,1.8,0.4,2.7c-0.2-1.3-0.4-2.6-0.5-3.9c1.9,18.3,3.5,36.4,3.3,54.9     c-0.1,9.1-0.5,18.2-1.2,27.2c-0.4,4.6-0.8,9.2-1.3,13.8c-0.2,1.8-0.4,3.6-0.7,5.5c-0.6,5.2,0.9-6.4,0.2-1.2     c-0.2,1.4-0.4,2.7-0.6,4.1c-2.7,17.4-6.5,34.7-11.5,51.5c-2.5,8.6-5.4,17-8.5,25.4c-1.4,3.7-2.9,7.5-4.4,11.2     c-2.6,6.3,2.1-4.9-0.6,1.4c-0.9,2-1.8,4-2.7,6.1c-7.2,15.8-15.4,31.2-24.6,45.9c-4.5,7.2-9.3,14.3-14.3,21.2     c-1.3,1.8-2.6,3.5-3.9,5.3c-0.7,0.9-4.9,6.4-2,2.7c2.8-3.6-1.3,1.6-2.1,2.6c-1.6,2-3.3,4.1-5,6.1c-10.9,13.1-22.6,25.4-35.1,36.9     c-6.4,5.9-13,11.6-19.8,17.1c-1.4,1.1-2.7,2.2-4.1,3.3c-3.9,3.1,4.9-3.7,0.9-0.7c-0.7,0.5-1.4,1.1-2.1,1.6     c-3.5,2.6-7,5.2-10.6,7.7c-14.2,9.9-29,19-44.4,26.9c-7.6,4-15.4,7.7-23.3,11.1c-1,0.4-2,0.9-3,1.3c-3.1,1.4,6.2-2.5,1.7-0.7     c-1.8,0.7-3.7,1.5-5.5,2.2c-4.3,1.7-8.7,3.3-13.1,4.9c-16.5,5.8-33.4,10.6-50.5,14.1c-4,0.8-8,1.6-12,2.3     c-2.2,0.4-4.5,0.8-6.7,1.1c-1.1,0.2-2.3,0.3-3.4,0.5c-1,0.1-6.2,0.8-1.4,0.2c4.8-0.6-2.2,0.3-3.5,0.4c-2.3,0.3-4.6,0.5-6.9,0.7     c-4.6,0.5-9.2,0.8-13.8,1.1c-18.4,1.2-36.9,1.1-55.3-0.3c-4.4-0.3-8.7-0.7-13.1-1.2c-2.1-0.2-4.1-0.5-6.2-0.7     c-1.8-0.2-5.6-0.9,1.9,0.3c-1.4-0.2-2.7-0.4-4.1-0.6c-9-1.3-17.9-3-26.8-5c-17.1-3.8-33.9-8.7-50.2-14.8     c-3.7-1.4-7.5-2.8-11.2-4.3c-1.2-0.5-2.4-1.1-3.7-1.5c0.2,0.1,6,2.6,2.3,1c-2.2-1-4.5-1.9-6.7-2.9c-7.8-3.5-15.5-7.3-23.1-11.4     c-15.3-8.2-30-17.3-44.1-27.4c-3.4-2.4-6.6-5-10-7.4c0.2,0.1,5,4,2,1.5c-0.9-0.7-1.7-1.4-2.6-2c-1.9-1.5-3.7-3-5.6-4.5     c-6.7-5.6-13.2-11.4-19.6-17.4c-12.3-11.7-23.9-24.2-34.7-37.4c-1.2-1.5-2.5-3.1-3.7-4.6c-1.1-1.4-3.2-4.4,1.1,1.4     c-0.5-0.7-1.1-1.4-1.6-2.1c-2.8-3.7-5.5-7.4-8.1-11.1c-4.9-7-9.6-14.1-14-21.4c-8.9-14.7-16.9-29.9-23.8-45.6     c-0.8-1.8-3.7-9.2-0.6-1.3c-0.8-2.1-1.7-4.1-2.5-6.2c-1.6-4.1-3.2-8.3-4.7-12.5c-2.9-8.2-5.6-16.5-8-24.9     c-4.9-17.3-8.1-34.8-11-52.5c1.4,8.5,0.2,1.1-0.1-0.9c-0.2-2.1-0.5-4.1-0.7-6.2c-0.5-4.6-0.9-9.2-1.2-13.8     c-0.6-8.9-0.9-17.7-0.9-26.6c0-13.1-11.5-25.6-25-25c-13.5,0.6-25,11-25,25c0.1,76.3,21.2,152.3,61.3,217.3     c38.8,62.9,94.6,115.6,160.1,150c67.8,35.6,145.3,52.4,221.8,47c75.3-5.3,149-30.6,210.6-74.5c60.4-43,109.8-101.2,139.9-169.1     c32.3-73,43.1-152.3,32.1-231.3c-10.4-74.5-42.5-144.5-89.8-202.7C786,210.4,723.3,166.8,653.8,141.2     c-75.6-27.9-159.6-32.1-237.9-13.7c-80.5,18.9-155.3,63.1-210.8,124.4c-13.9,15.3-26.6,31.7-38.2,48.8c-7.4,10.9-2.4,28.2,9,34.2     C188.5,341.5,202.2,337.5,210,325.9L210,325.9z"></path></g></g></g></svg>